<svg width="38" height="38" viewBox="0 0 38 38" fill="none" xmlns="http://www.w3.org/2000/svg">
<path d="M21.0835 19C21.0835 17.8494 22.0162 16.9167 23.1668 16.9167H33.5835C34.7341 16.9167 35.6668 17.8494 35.6668 19V33.5834C35.6668 34.734 34.7341 35.6667 33.5835 35.6667H23.1668C22.0162 35.6667 21.0835 34.734 21.0835 33.5834V19Z" stroke="#292929" stroke-width="3" stroke-linecap="round"/>
<path d="M2.3335 4.41671C2.3335 3.26611 3.26624 2.33337 4.41683 2.33337H12.7502C13.9008 2.33337 14.8335 3.26611 14.8335 4.41671V19C14.8335 20.1506 13.9008 21.0834 12.7502 21.0834H4.41683C3.26624 21.0834 2.3335 20.1506 2.3335 19V4.41671Z" stroke="#292929" stroke-width="3" stroke-linecap="round"/>
<path d="M2.3335 29.4167C2.3335 28.2661 3.26624 27.3334 4.41683 27.3334H12.7502C13.9008 27.3334 14.8335 28.2661 14.8335 29.4167V33.5834C14.8335 34.734 13.9008 35.6667 12.7502 35.6667H4.41683C3.26624 35.6667 2.3335 34.734 2.3335 33.5834V29.4167Z" stroke="#292929" stroke-width="3" stroke-linecap="round"/>
<path d="M21.0835 4.41671C21.0835 3.26611 22.0162 2.33337 23.1668 2.33337H33.5835C34.7341 2.33337 35.6668 3.26611 35.6668 4.41671V8.58337C35.6668 9.73397 34.7341 10.6667 33.5835 10.6667H23.1668C22.0162 10.6667 21.0835 9.73397 21.0835 8.58337V4.41671Z" stroke="#292929" stroke-width="3" stroke-linecap="round"/>
</svg>
